<svg width="185" height="104" viewBox="0 0 185 104" fill="none" xmlns="http://www.w3.org/2000/svg">
<path d="M0 18.0703C24.1435 -4.14911 63.0181 2.84411 77.8086 32.3486C87.3066 51.2959 107.806 62.1026 128.806 59.2333C157.477 55.3161 182.333 76.4543 184.86 103.612H0V18.0703Z" fill="#F7F7F7"/>
<path d="M0 1.32673C21.265 -3.7041 44.7918 5.71881 55.6611 27.1031C65.1147 45.7016 85.1837 56.3526 105.823 53.8326L106.807 53.7027C137.541 49.3287 164.045 73.8144 163.331 103.786H162.33C163.042 74.4099 137.069 50.4061 106.947 54.6929C85.5408 57.7394 64.567 46.8313 54.7695 27.5562C44.08 6.52565 20.8965 -2.69636 0 2.35701V1.32673Z" fill="#DDDDDD"/>
</svg>
